<?xml version="1.0" standalone="no"?>
<!DOCTYPE svg PUBLIC "-//W3C//DTD SVG 20010904//EN"
 "http://www.w3.org/TR/2001/REC-SVG-20010904/DTD/svg10.dtd">
<svg version="1.0" xmlns="http://www.w3.org/2000/svg"
 width="150px" height="100px" fill="rgba(38, 38, 38, 0.7)" viewBox="0 0 403.000000 79.000000"
 preserveAspectRatio="xMidYMid meet">
<metadata>
Created by potrace 1.16, written by Peter Selinger 2001-2019
</metadata>
<g transform="translate(0.000000,79.000000) scale(0.100000,-0.100000)"
 stroke="none">
<path d="M853 783 c-18 -3 -23 -11 -23 -37 0 -27 -6 -35 -33 -48 -122 -58
-176 -190 -130 -323 21 -63 85 -127 148 -148 200 -69 392 72 372 271 -9 88
-71 171 -150 201 -22 9 -27 17 -27 45 0 30 -4 34 -31 40 -34 6 -90 6 -126 -1z
m117 -139 c35 -14 40 -20 40 -47 0 -18 9 -41 23 -55 17 -18 22 -35 21 -71 -1
-112 -116 -178 -205 -118 -68 45 -86 131 -41 194 11 16 22 42 24 57 2 23 11
32 38 42 47 17 53 17 100 -2z"/>
<path d="M2665 704 c-98 -35 -165 -130 -165 -235 0 -103 37 -170 123 -219 65
-37 124 -46 193 -31 l54 12 0 75 0 75 -32 -22 c-40 -29 -111 -31 -151 -4 -81
53 -73 185 14 231 40 20 101 14 141 -16 l28 -21 0 75 0 75 -37 10 c-51 15
-120 12 -168 -5z"/>
<path d="M3080 699 c-99 -45 -154 -127 -153 -229 1 -103 50 -187 137 -233 59
-31 203 -32 261 0 87 46 134 128 135 231 0 107 -48 182 -145 228 -66 31 -170
33 -235 3z m181 -114 c90 -47 90 -188 -2 -237 -93 -50 -199 16 -199 123 0 25
7 55 16 68 40 56 124 77 185 46z"/>
<path d="M90 708 c0 -2 -18 -106 -40 -233 -22 -126 -40 -236 -40 -243 0 -10
16 -12 62 -10 l63 3 19 133 c10 73 22 129 26 125 4 -4 30 -64 58 -133 43 -107
54 -125 74 -128 22 -3 29 9 83 135 67 157 62 159 85 -34 l12 -103 65 0 66 0
-6 28 c-3 15 -20 125 -38 245 l-33 218 -64 -3 -64 -3 -20 -50 c-53 -135 -81
-196 -88 -188 -4 4 -27 61 -51 125 l-44 118 -62 0 c-35 0 -63 -1 -63 -2z"/>
<path d="M1250 465 l0 -246 63 3 62 3 5 143 5 142 114 -145 113 -146 62 3 61
3 3 243 2 242 -65 0 -64 0 -3 -146 -3 -147 -115 147 -115 146 -62 0 -63 0 0
-245z"/>
<path d="M1780 655 l0 -55 55 0 55 0 0 -190 0 -190 60 0 60 0 0 190 0 190 55
0 55 0 0 55 0 55 -170 0 -170 0 0 -55z"/>
<path d="M2162 468 l3 -243 138 -3 137 -3 0 56 0 55 -75 0 -75 0 0 40 0 40 70
0 70 0 0 55 0 55 -70 0 -70 0 0 40 0 40 75 0 75 0 0 55 0 55 -140 0 -140 0 2
-242z"/>
<path d="M3522 468 l3 -243 63 -3 62 -3 0 147 c0 117 3 144 13 136 7 -6 59
-71 117 -146 l105 -135 63 -1 62 0 0 245 0 246 -62 -3 -63 -3 -5 -141 -5 -141
-111 141 -110 141 -67 3 -67 3 2 -243z"/>
</g>
</svg>
