<svg width="223" height="276" viewBox="0 0 223 276" fill="none" xmlns="http://www.w3.org/2000/svg">
<g filter="url(#filter0_d)">
<path d="M145.677 102.964C145.677 14.6184 92.1145 4.5 111.258 4.5C130.401 4.5 215 14.6184 215 102.964C215 191.31 199.481 262.928 180.338 262.928C161.195 262.928 145.677 191.31 145.677 102.964Z" fill="white"/>
<path d="M111.258 102.964C111.258 14.6184 92.1145 4.5 111.258 4.5C130.401 4.5 180.581 14.6184 180.581 102.964C180.581 191.31 165.062 262.928 145.919 262.928C126.776 262.928 111.258 191.31 111.258 102.964Z" fill="white"/>
<path d="M76.8384 102.964C76.8384 14.6184 92.1145 4.5 111.258 4.5C130.401 4.5 146.162 14.6184 146.162 102.964C146.162 191.31 130.643 262.928 111.5 262.928C92.3569 262.928 76.8384 191.31 76.8384 102.964Z" fill="white"/>
<path d="M42.4192 102.964C42.4192 14.6184 92.1145 4.5 111.258 4.5C130.401 4.5 111.742 14.6184 111.742 102.964C111.742 191.31 96.2239 262.928 77.0808 262.928C57.9377 262.928 42.4192 191.31 42.4192 102.964Z" fill="white"/>
<path d="M7.99998 104.036C7.99998 15.6899 92.1145 4.5 111.258 4.5C130.401 4.5 77.3232 15.6899 77.3232 104.036C77.3232 192.382 61.8047 264 42.6616 264C23.5185 264 7.99998 192.382 7.99998 104.036Z" fill="white"/>
</g>
<defs>
<filter id="filter0_d" x="0" y="0.5" width="223" height="275.5" filterUnits="userSpaceOnUse" color-interpolation-filters="sRGB">
<feFlood flood-opacity="0" result="BackgroundImageFix"/>
<feColorMatrix in="SourceAlpha" type="matrix" values="0 0 0 0 0 0 0 0 0 0 0 0 0 0 0 0 0 0 127 0"/>
<feOffset dy="4"/>
<feGaussianBlur stdDeviation="4"/>
<feColorMatrix type="matrix" values="0 0 0 0 0 0 0 0 0 0 0 0 0 0 0 0 0 0 0.25 0"/>
<feBlend mode="normal" in2="BackgroundImageFix" result="effect1_dropShadow"/>
<feBlend mode="normal" in="SourceGraphic" in2="effect1_dropShadow" result="shape"/>
</filter>
</defs>
</svg>
