<?xml version="1.0" encoding="utf-8"?>
<!-- Generator: Adobe Illustrator 16.0.3, SVG Export Plug-In . SVG Version: 6.00 Build 0)  -->
<!DOCTYPE svg PUBLIC "-//W3C//DTD SVG 1.1//EN" "http://www.w3.org/Graphics/SVG/1.1/DTD/svg11.dtd">
<svg version="1.1" id="logo" xmlns="http://www.w3.org/2000/svg" xmlns:xlink="http://www.w3.org/1999/xlink" x="0px" y="0px"
	 width="100px" height="100px" viewBox="0 0 439 93" enable-background="new 0 0 439 93" xml:space="preserve" fill="rgba(38, 38, 38, 0.7)">
<path d="M164.591,40.901c0.823-1.639,3.24-2.127,4.712-1.588c1.333,0.49,3.041,1.74,2.145,3.534
	c-0.823,1.645-3.241,2.12-4.714,1.585C165.401,43.944,163.69,42.694,164.591,40.901 M205.025,61.609
	c0.024,1.145,0.068,2.293,0.158,3.439c0.585,7.775,3.202,17.133,11.112,20.854c0.368,2.091,0.078,3.879-1.823,3.742
	c-7.101-2.15-12.98-7.221-15.606-14.779c-0.832-2.393-1.381-4.854-1.731-7.349c-0.077,0.021-0.157,0.048-0.238,0.069
	c-0.833,0.409-14.214,9.206-21.899-0.783c-0.049-0.055-0.087-0.094-0.125-0.135c-1.608,0.654-3.384,1.279-5.358,1.85
	c-0.54,0.184-1.096,0.342-1.669,0.461c-0.015,0.004-0.027,0.01-0.043,0.014c-0.295,0.078-0.535,0.116-0.726,0.122
	c-0.486,0.073-0.984,0.139-1.502,0.164c-3.096,0.175-6.013-0.981-7.289-3.328c-0.003,0-0.003-0.003-0.006-0.008
	c-1.022-1.243-2.112-0.63-2.488-0.355c-3.385,2.778-9.426,5.511-12.214-6.655c-3.711,5.972-14.083,17.689-17.917,5.76
	c-3.177,3.674-9.145,6.755-12.928,6.645c-4.294-0.121-4.735-3.573-4.877-3.831c-1.523,1.827-3.227,2.785-5.272,2.978
	c-0.712,0.773-9.716,0.092-8.219-7.437c1.83-9.178,9.904-16.332,14.936-16.47c5.297-0.142,6.279,2.776,6.279,2.776
	c1.031,2.076,0.446,5.709-0.543,8.314c-0.229,0.593-0.457,1.197-0.673,1.809c-1.153,3.312-1.143,6.316,0.317,5.799
	c2.456-0.955,5.221-3.459,7.27-6.48c1.856-2.724,3.71-5.516,5.497-8.395c1.046-1.686,7.746-3.594,7.549,0.34
	c-0.157,3.13-2.444,7.363-2.291,10.959c0.317,3.588,6.632-8.152,10.005-11.785c1.991-2.147,6.657-1.344,6.505,1.242
	c-0.162,2.752-0.537,7.742,0.965,9.645c1.885,2.375,5.035-0.061,5.955-1.098c1.234-1.4,4.727-9.844,5.516-10.747
	c0.899-1.022,2.655-0.921,3.75-0.818c0.355,0.03,2.444,0.175,2.094,1.687c-0.137,0.58-2.564,7.217-2.995,9.643
	c-1.048,5.924,4.628,3.509,7.152,2.357c-1.646-8.465,5.059-20.641,14.397-16.658c3.115,1.327,4.24,4.405,3.63,7.747
	c0,0-0.025,0.195-0.119,0.544c-0.743,3.123-2.968,6.391-6.483,8.627c-0.956,0.741-2.043,1.473-3.289,2.197
	c5.135,6.073,15.105-2.18,16.881-3.75c-0.006-4.267,1.079-38.721,18.472-47.171c2.179-1.058,6.383-0.982,8.141,1.493
	C224.156,16.082,231.406,30.161,205.025,61.609z M109.66,53.019c-1.796-2.805-11.877,10.709-7.032,10.809
	C105.39,63.538,111.14,55.265,109.66,53.019z M176.968,59.549c2.863-0.317,6.665-3.911,7.406-6.465c1.01-3.47-2.065-4.236-4-2.618
	C177.813,52.603,176.13,56.069,176.968,59.549z M218.816,23.687c-0.137-1.608-1.591-2.389-3.147-1.105
	c-6.715,5.556-11.089,24.921-11.378,27.335c-0.05,0.058-0.443,4.032-0.387,4.003c0.031-0.013,0.067-0.021,0.097-0.027
	C211.542,46.714,219.537,31.994,218.816,23.687z M371.095,44.021c1.429,0.648,3.871,0.369,4.812-1.204
	c1.022-1.719-0.588-3.105-1.882-3.701c-1.422-0.652-3.87-0.367-4.81,1.202C368.192,42.042,369.805,43.429,371.095,44.021z
	 M414.188,67.803c-4.191,0.091-10.02-1.109-12.617-9.874c-3.825,5.889-14.414,17.368-18.017,5.351
	c-3.247,3.602-7.58,6.374-11.356,6.177c-0.651-0.034-1.297-0.166-1.904-0.359c-2.319-0.518-4.451-2.012-5.854-4.919
	c-0.896,0.728-3.692,1.698-6.854,1.968c-3.982,3.387-10.909,4.111-16.453,0.389c-2.38-1.6,4.059-4.086,5.758-1.947
	c3.317,4.176,7.89-1.945,6.37-6.475c-0.8-2.375-2.388-4.318-4.041-6.225c-3.973,5.328-8.633,12.589-15.986,15.42
	c-4.109,3.719-11.512,4.59-17.409,0.62c-2.482-1.67,4.236-4.257,6.01-2.03c3.46,4.355,8.228-2.035,6.645-6.755
	c-0.836-2.479-2.49-4.5-4.213-6.495c-4.584,6.151-10.047,14.77-19.217,16.864c-0.543,0.126-1.067,0.226-1.576,0.288
	c-0.041,0.007-0.08,0.014-0.122,0.019l-0.006-0.005c-0.771,0.096-1.495,0.107-2.143,0.025c-4.266-0.521-4.427-4-4.548-4.271
	c-1.662,1.681-3.437,2.478-5.488,2.479c-0.021,0.038-3.038-0.032-5.275-1.637c-13.077,6.986-31.6,12.3-45.914-2.673
	c-15.679-16.406-4.723-38.377,11.867-47.961c11.31-6.538,32.354-9.625,49.152,5.786c3.101,2.845-0.128,7.798-6.431,2.741
	c-22.187-17.807-67.729,8.87-48.252,34.413c0,0,12.064,14.655,37.244,3.644c-0.061-0.617-0.042-1.305,0.075-2.063
	c1.435-9.111,11.064-15.44,16.554-15.268c4.973,0.153,5.629,3.151,5.629,3.151c0.859,2.162-0.017,5.735-1.214,8.237
	c-0.277,0.576-0.555,1.157-0.818,1.747c-1.413,3.198-1.652,6.187-0.155,5.807c0.026-0.005,0.168-0.021,0.324-0.035
	c0.435-0.066,0.827-0.13,1.105-0.211c3.32-0.969,4.54-2.715,5.752-3.857c1.979-1.865,3.28-3.833,4.854-6.114
	c1.556-2.26,5.589-8.256,6.452-10.321c1.599-3.834,7.757-2.275,7.262,0.433c-0.608,3.354,4.299,10.439,5.896,13.898
	c0.246,0.53,0.412,1.058,0.529,1.569c0.178-0.183,0.351-0.359,0.524-0.52c1.896-1.792,3.142-3.677,4.653-5.868
	c1.491-2.163,5.355-7.905,6.182-9.887c1.532-3.679,7.434-2.185,6.961,0.415c-0.583,3.213,4.119,10.003,5.648,13.315
	c0.255,0.56,0.428,1.109,0.541,1.646c4.217-0.412,6.533-9.42,6.822-9.943l0.064-0.098c0.793-1.195,3.189-1.205,4.404-1.021
	l0.078,0.013c0.102,0.015,1.014,0.16,1.807,0.461c0.695,0.257,0.739,0.285,0.893,0.673c0.064,0.173-0.036,0.758-0.043,0.766
	c0,0-3.65,9.136-3.057,12.893c0.026-0.024,0.052-0.039,0.08-0.062c0.17,1.029,0.705,1.643,1.429,1.405
	c2.475-0.899,5.063-3.253,7.175-6.225c1.906-2.683,3.813-5.435,5.654-8.276c1.08-1.657,7.808-3.414,7.534,0.518
	c-0.211,3.13-2.579,7.304-2.499,10.91c0.247,3.598,6.788-8,10.232-11.559c2.031-2.1,6.679-1.192,6.474,1.393
	c-0.213,2.745-0.416,7.314,0.457,9.625c0.623,1.631,3.322,3.096,6.211,2.939c5.324-0.297,8.916-2.666,10.439-5.17
	c1.588-2.623,4.744-1.058,4.26,1.152C427.957,62.314,421.609,67.669,414.188,67.803z M299.623,51.289
	c-1.554-2.967-14.876,10.475-7.877,10.124C294.527,61.38,300.917,53.664,299.623,51.289z M48.293,4.189
	c-0.021,0-0.043,0.003-0.064,0.003c-0.298,0.026-0.591,0.045-0.886,0.074C15.526,7.14-9.807,36.86,12.408,57.233l-0.003,0.003
	c0,0,0.187,0.178,0.504,0.45c0.43,0.378,0.87,0.759,1.334,1.127h0.008c0.003,0,0.003-0.007,0.008-0.007
	c1.123,0.895,2.584,1.938,3.867,2.496c0.006,0.006,0.011,0.006,0.018,0.006c0.311,0.143,0.658,0.229,1.023,0.229
	c1.37,0,2.483-1.111,2.483-2.48c0-1.117-0.749-2.051-1.757-2.357c-0.575-0.354-1.536-0.98-2.797-1.975
	c-17.628-16.404,4.208-38.425,28.8-41.484c20.496-1.786,41.683,5.781,42.188,26.58c0,0,0.669,28.881-47.478,33.143
	c8.317-20.148,22.81-50.593,22.826-50.627c1.463-3.377-6.609-6-12.778,2.99c-6.12,9.108-16.168,26.279-19.776,45.366
	c-0.102,0.537-0.196,1.061-0.28,1.566c-1.438-0.169-3.247,0.389-3.936,1.762c-0.902,1.801,0.809,3.051,2.145,3.538
	c0.315,0.114,0.675,0.177,1.053,0.198c-0.24,2.945,7.292,3.264,9.242-0.119c16.018-0.432,57.484-3.86,58.292-37.541
	C98.003,14.63,71.357,2.295,48.293,4.189z M426.879,73.246c0,1.927,1.543,3.372,3.387,3.372c1.828,0,3.363-1.445,3.363-3.372
	c0-1.9-1.535-3.345-3.363-3.345C428.422,69.901,426.879,71.345,426.879,73.246z M427.486,73.246c0-1.607,1.209-2.853,2.779-2.853
	c1.551,0,2.756,1.245,2.756,2.853c0,1.641-1.205,2.879-2.756,2.879C428.695,76.125,427.486,74.886,427.486,73.246z M428.957,75.214
	h0.609v-1.686h0.643l1.07,1.686h0.654l-1.123-1.73c0.584-0.061,1.033-0.359,1.033-1.07c0-0.752-0.439-1.119-1.373-1.119h-1.514
	V75.214z M429.566,71.786h0.807c0.412,0,0.859,0.083,0.859,0.604c0,0.619-0.494,0.645-1.029,0.645h-0.637V71.786z"/>
</svg>
