<?xml version="1.0" encoding="UTF-8"?>
<svg width="100mm" height="100mm" version="1.1" viewBox="0 0 210 297" fill="rgba(38, 38, 38, 0.7)" xmlns="http://www.w3.org/2000/svg" xmlns:cc="http://creativecommons.org/ns#" xmlns:dc="http://purl.org/dc/elements/1.1/" xmlns:rdf="http://www.w3.org/1999/02/22-rdf-syntax-ns#">
 <metadata>
  <rdf:RDF>
   <cc:Work rdf:about="">
    <dc:format>image/svg+xml</dc:format>
    <dc:type rdf:resource="http://purl.org/dc/dcmitype/StillImage"/>
    <dc:title/>
   </cc:Work>
  </rdf:RDF>
 </metadata>
 <g transform="matrix(3.7876 0 0 3.7876 -254.73 -596.17)" stroke-width=".26458">
  <path d="m70.163 201.92 0.17639-0.17639 0.35278 0.35278h-0.70556zm7.0059-4e-3 0.34726-0.13897 0.15985 0.15985 0.15985 0.15986-1.0142-0.0418zm3.7042 0 0.34726-0.13897 0.15985 0.15985 0.15985 0.15986-1.0142-0.0418zm5.6059 0.0485v-0.1323h0.26458v0.26459h-0.26458zm5.6633-0.17318-0.18879-0.30546 0.61093 0.37757v0.23336h-0.23335zm5.5563 0-0.18879-0.30546 0.61093 0.37757v0.23336h-0.23335zm6.5957 0.12908 0.17639-0.17639 0.35278 0.35278h-0.70555zm3.4396 0 0.17639-0.17639 0.17639 0.17639 0.17638 0.17639h-0.70555zm5.9972 0.0441v-0.1323h0.26458v0.26459h-0.26458zm0.52917 0v-0.1323h0.26458v0.26459h-0.26458zm5.6633-0.17318-0.18878-0.30546 0.61092 0.37757v0.23336h-0.23335zm-43.499-0.0914v-0.13229h0.26458v0.26458h-0.26458zm5.2917 0v-0.13229h0.26458v0.26458h-0.26458zm21.696 0v-0.13229h0.26458v0.26458h-0.26458zm5.2917 0v-0.13229h0.26458v0.26458h-0.26458zm-39.58-0.43775-0.18879-0.30547 0.61093 0.37758v0.23335h-0.23335zm13.254 0.0409 0.16352-0.26459h0.26458l-0.16352 0.26459-0.16352 0.26458h-0.26458zm3.9157-1.0583v-1.4552l0.22045 1.4552-0.11022 0.72761-0.11022 0.7276zm1.0697-0.66145 0.0017-2.1167 0.20324 2.2629-0.10337 0.9852-0.10337 0.98519 0.0017-2.1167zm15.362 1.6789-0.18879-0.30547 0.61093 0.37758v0.23335h-0.23336zm10.833-1.8112v-2.249l0.10129 1.1245 0.10128 1.1245-0.10128 1.1245-0.10129 1.1245zm1.0566 0.1323 2e-3 -2.1167 0.10163 1.1315 0.10162 1.1315-0.10337 0.9852-0.10337 0.98519 2e-3 -2.1167zm-5.1178 1.5875v-0.1323h0.26458v0.26459h-0.26458zm-38.894-0.26459v-0.13229h0.26458v0.26458h-0.26458zm0.79375 0v-0.13229h0.26458v0.26458h-0.26458zm0.52917 0v-0.13229h0.26458v0.26458h-0.26458zm5.2917 0v-0.13229h0.26458v0.26458h-0.26458zm3.9688 0v-0.13229h0.26458v0.26458h-0.26458zm22.754 0v-0.13229h0.26458v0.26458h-0.26458zm4.2333 0v-0.13229h0.26458v0.26458h-0.26458zm-31.485-0.26458v-0.13229h0.26458v0.26458h-0.26458zm6.0854 0v-0.13229h0.26458v0.26458h-0.26458zm-12.965-0.26458v-0.1323h0.26458v0.26459h-0.26458zm5.5562 0v-0.1323h0.26458v0.26459h-0.26458zm6.4823-0.1323 0.16352-0.26458h0.26458l-0.16352 0.26458-0.16352 0.26459h-0.26458zm0.92604-0.13229v-0.13229h0.26458v0.26458h-0.26458zm19.376-0.66146v-0.92604l0.242 0.92604-0.121 0.46302-0.121 0.46303zm1.0583-0.26458v-0.92604l0.242 0.92604-0.242 0.92604zm5.8315-0.26458v-1.1906l0.11466 0.59531 0.11467 0.59532-0.11467 0.59531-0.11466 0.59531zm1.062-0.13229 4e-3 -1.3229 0.22114 1.4625-0.11418 0.59168-0.11419 0.59167zm-28.562 0.22048 0.17639-0.17639 0.35278 0.35278h-0.70556zm1.2347 0.0441v-0.13229h0.26458v0.26458h-0.26458zm3.4912-1.0583 0.0098-0.79375 0.12197 0.46805 0.12197 0.46806-0.13177 0.32569-0.13177 0.3257 0.0098-0.79375zm-9.8412 0.26458v-0.13229h0.26458v0.26458h-0.26458zm1.6616-0.0625 1.2648-0.0994 2.233 0.20178-4.7625-2e-3 1.2648-0.0994zm24.024-0.22411 0.0209-0.50712 0.13896 0.34726 0.13897 0.34727-0.15985 0.15985-0.15986 0.15985 0.0209-0.50711zm1.0374-0.11025v-0.35277l0.17639 0.17638 0.17638 0.17639-0.17638 0.17639-0.17639 0.17639zm-20.373-0.13229v-0.13229h0.26458v0.26458h-0.26458zm-7.4083-0.26458v-0.13229h0.26458v0.26458h-0.26458zm1.0583 0v-0.13229h0.26458v0.26458h-0.26458zm4.9933-0.33073-0.36313-0.46302 0.46302 0.36312 0.46302 0.36313v0.1998h-0.19979zm6.2515-0.0661 0.16352-0.26458h0.26458l-0.16352 0.26458-0.16352 0.26459h-0.26458zm5.6885 0.1323v-0.1323h0.26458v0.26459h-0.26458zm10.054 0v-0.1323h0.26458v0.26459h-0.26458zm11.377 0v-0.1323h0.26459v0.26459h-0.26459zm-37.835-0.26459v-0.13229h0.26458v0.26458h-0.26458zm5.5562 0v-0.13229h0.26458v0.26458h-0.26458zm15.875 0v-0.13229h0.26458v0.26458h-0.26458zm3.9688 0v-0.13229h0.26458v0.26458h-0.26458zm16.669 0v-0.13229h0.26458v0.26458h-0.26458zm1.5875 0v-0.13229h0.26458v0.26458h-0.26458zm-30.427-0.26458v-0.13229h0.26458v0.26458h-0.26458zm2.6458 0v-0.13229h0.26458v0.26458h-0.26458zm16.511-0.17317-0.18879-0.30547 0.30547 0.18879 0.30546 0.18879v0.23335h-0.23335zm-17.04-0.0914v-0.1323h0.26458v0.26459h-0.26458zm10.583 0v-0.1323h0.26459v0.26459h-0.26459zm-26.458-0.26459v-0.13229h0.26458v0.26458h-0.26458zm5.2917 0v-0.13229h0.26458v0.26458h-0.26458zm5.5562 0v-0.13229h0.26458v0.26458h-0.26458zm6.0854 0v-0.13229h0.26458v0.26458h-0.26458zm4.2333 0v-0.13229h0.26458v0.26458h-0.26458zm5.8208 0v-0.13229h0.26458v0.26458h-0.26458zm5.2917 0v-0.13229h0.26458v0.26458h-0.26458zm5.8208 0v-0.13229h0.26458v0.26458h-0.26458zm5.2917 0v-0.13229h0.26458v0.26458h-0.26458zm-42.383-0.31303 0.34727-0.13896 0.3197 0.3197-1.0142-0.0418zm0.93155 4e-3 0.17639-0.17639 0.35278 0.35278h-0.70556zm1.0583 0 0.17639-0.17639 0.35278 0.35278h-0.70556zm0.92053-4e-3 0.34727-0.13896 0.3197 0.3197-1.0142-0.0418zm7.9375 0 0.34727-0.13896 0.3197 0.3197-1.0142-0.0418zm0.84336 0.0485v-0.13229h0.26458v0.26458h-0.26458zm0.52917 0v-0.13229h0.26458v0.26458h-0.26458zm0.52917 0v-0.13229h0.26458v0.26458h-0.26458zm0.74414-0.0485 0.34726-0.13896 0.15985 0.15985 0.15985 0.15985-1.0142-0.0418zm3.3128 4e-3 0.17639-0.17639 0.35278 0.35278h-0.70556zm1.0583 0 0.17639-0.17639 0.17639 0.17639 0.17639 0.17639h-0.70555zm1.1851-4e-3 0.34726-0.13897 0.3197 0.31971-1.0142-0.0418 0.34727-0.13896zm8.3178-9e-3 0.72761-0.11022 1.4552 0.22044h-2.9104zm2.5301 9e-3 0.34727-0.13897 0.15985 0.15986 0.15985 0.15985-1.0142-0.0418 0.34727-0.13896zm8.2021 0 0.34727-0.13897 0.15985 0.15986 0.15985 0.15985-1.0142-0.0418 0.34726-0.13896zm1.5757-0.011 0.86463-0.10707 1.4457 0.21953-3.175-6e-3z" fill="#cecece"/>
  <path d="m70.935 201.92 0.46302-0.121 0.92604 0.242h-1.8521zm7.5454-9e-3 0.86463-0.10707 1.4457 0.21953-3.175-6e-3 0.86464-0.10706zm8.2635 0.0595v-0.1323h0.26458v0.26459h-0.26458zm5.9531-0.1323 0.16352-0.26458h0.26458l-0.16352 0.26458-0.16352 0.26459h-0.26458zm5.5562 0 0.16352-0.26458h0.26458l-0.16352 0.26458-0.16352 0.26459h-0.26458zm7.2146 0.0728 0.86463-0.10707 1.4457 0.21953-3.175-6e-3 0.86464-0.10706zm8.5281 0.0595v-0.1323h0.26459v0.26459h-0.26459zm6.4823-0.1323 0.16352-0.26458h0.26458l-0.16352 0.26458-0.16352 0.26459h-0.26459zm-50.668-0.13229v-0.13229h0.26458v0.26458h-0.26458zm6.8792 0v-0.13229h0.26458v0.26458h-0.26458zm4.7625 0v-0.13229h0.26458v0.26458h-0.26458zm22.225 0v-0.13229h0.26459v0.26458h-0.26459zm4.7625 0v-0.13229h0.26459v0.26458h-0.26459zm-32.279-0.26458v-0.13229h0.26458v0.26458h-0.26458zm15.964-1.7198v-1.9844l0.20757 1.9844-0.10379 0.99218-0.10379 0.99219zm5.558-0.13229 0.0019-2.1167 0.10162 1.1315 0.10162 1.1315-0.10337 0.9852-0.10337 0.98519 0.0019-2.1167zm11.286 1.8521v-0.13229h0.26458v0.26458h-0.26458zm10.937-1.7198v-1.9844l0.10379 0.99219 0.10378 0.99219-0.10378 0.99218-0.10379 0.99219zm-47.714 1.4552v-0.1323h0.26458v0.26459h-0.26458zm6.6844-0.0576 0.73124-0.11058 1.1833 0.22837-2.6458-8e-3zm26.592-2e-3 0.86463-0.10707 1.4457 0.21953-3.175-6e-3zm-35.128-0.20514v-0.13229h0.26458v0.26458h-0.26458zm5.2917 0v-0.13229h0.26458v0.26458h-0.26458zm1.3229 0v-0.13229h0.26458v0.26458h-0.26458zm4.4979 0v-0.13229h0.26458v0.26458h-0.26458zm22.067-0.17317-0.18879-0.30546 0.30546 0.18878 0.30547 0.18879v0.23335h-0.23336zm-34.767-0.0914v-0.13229h0.26458v0.26458h-0.26458zm33.602 0v-0.13229h0.26458v0.26458h-0.26458zm6.35 0v-0.13229h0.26458v0.26458h-0.26458zm1.0583 0v-0.13229h0.26458v0.26458h-0.26458zm-33.338-0.26458v-0.1323h0.26458v0.26459h-0.26458zm6.35 0v-0.1323h0.26458v0.26459h-0.26458zm-7.329-1.4552v-1.4552l0.11022 0.7276 0.11022 0.72761-0.11022 0.7276-0.11022 0.72761zm27.702 1.1906v-0.13229h0.26458v0.26458h-0.26458zm5.8208 0v-0.13229h0.26458v0.26458h-0.26458zm-39.326-2.6458 0.0013-2.6458 0.19496 2.7959-0.09874 1.2479-0.09873 1.2479 0.0013-2.6458zm8.0482 1.5244 1.3979-0.0975 2.4958 0.1974-5.2917-2e-3 1.3979-0.0975zm4.6051 0.0316 0.44675-0.13337 0.12576-0.57904 0.12576-0.57905-0.04334 0.65876-0.04334 0.65875-1.0583 0.1074zm3.9189-0.23312v-0.1323h0.26458v0.26459h-0.26458zm15.875-0.26459v-0.13229h0.26459v0.26458h-0.26459zm-25.4-0.26458v-0.13229h0.26458v0.26458h-0.26458zm4.8507-0.0441 0.17639-0.17639 0.35278 0.35278h-0.70556zm27.428-0.48507v-0.13229h0.26458v0.26458h-0.26458zm-21.696-0.26458v-0.13229h0.26458v0.26458h-0.26458zm5.8208 0v-0.13229h0.26458v0.26458h-0.26458zm-1.4805-0.43776-0.18879-0.30546 0.61093 0.37757v0.23336h-0.23335zm5.5562 0-0.18879-0.30546 0.61093 0.37757v0.23336h-0.23335zm1.2159 0.17318v-0.1323h0.26458v0.26459h-0.26458zm10.161-0.17318-0.18879-0.30546 0.61093 0.37757v0.23336h-0.23335zm1.2159 0.17318v-0.1323h0.26458v0.26459h-0.26458zm9.632-0.17318-0.18879-0.30546 0.30546 0.18879 0.30547 0.18878v0.23336h-0.23336zm1.2159 0.17318v-0.1323h0.26458v0.26459h-0.26458zm-44.979-0.26459v-0.13229h0.26458v0.26458h-0.26458zm10.848 0v-0.13229h0.26458v0.26458h-0.26458zm7.1438 0v-0.13229h0.26458v0.26458h-0.26458zm10.054 0v-0.13229h0.26459v0.26458h-0.26459zm10.054 0v-0.13229h0.26458v0.26458h-0.26458zm1.3229 0v-0.13229h0.26458v0.26458h-0.26458zm-36.843-0.32369 0.8599-0.10671 1.7198 0.21342h-3.4396zm3.8773-0.11406-0.18879-0.30547 0.61093 0.37758v0.23335h-0.23335zm6.8383 0.12308 0.46302-0.121 0.92604 0.242h-1.8521zm1.6095 6e-3 0.17639-0.17639 0.17639 0.17639 0.17639 0.17639h-0.70556zm4.3436-0.0103 0.59531-0.11466 0.59531 0.11466 0.59531 0.11467h-2.3812zm3.0836-0.11873-0.18879-0.30547 0.61093 0.37758v0.23335h-0.23335zm4.6555 0.17317v-0.13229h0.26458v0.26458h-0.26458zm2.5738-0.0587 0.85399-0.10627 1.9962 0.20828-3.7042 4e-3 0.854-0.10627zm11.388-7.9e-4 0.86463-0.10707 1.4457 0.21953-3.175-6e-3zm3.608-0.11371-0.18879-0.30547 0.61093 0.37758v0.23335h-0.23336zm-27.095-0.0914v-0.1323h0.26458v0.26459h-0.26458zm-11.642-0.26459v-0.13229h0.26458v0.26458h-0.26458zm6.0854 0v-0.13229h0.26458v0.26458h-0.26458zm4.2333 0v-0.13229h0.26458v0.26458h-0.26458zm5.5562 0v-0.13229h0.26458v0.26458h-0.26458zm6.35 0v-0.13229h0.26459v0.26458h-0.26459zm4.7625 0v-0.13229h0.26459v0.26458h-0.26459zm11.112 0v-0.13229h0.26459v0.26458h-0.26459zm-41.54-0.26458v-0.13229h0.26458v0.26458h-0.26458zm0.88194-0.0441 0.17639-0.17639 0.17639 0.17639 0.17639 0.17639h-0.70556zm0.97014 0.0441v-0.13229h0.26458v0.26458h-0.26458zm8.9958 0v-0.13229h0.26458v0.26458h-0.26458zm0.52917 0v-0.13229h0.26458v0.26458h-0.26458zm0.52917 0v-0.13229h0.26458v0.26458h-0.26458zm0.52917 0v-0.13229h0.26458v0.26458h-0.26458zm4.3215-0.0441 0.17639-0.17639 0.17639 0.17639 0.17639 0.17639h-0.70556zm1.0583 0 0.17639-0.17639 0.17639 0.17639 0.17639 0.17639h-0.70555zm11.024 0.0441v-0.13229h0.26459v0.26458h-0.26459zm9.2604 0v-0.13229h0.26458v0.26458h-0.26458zm-46.567-1.4552v-0.35278l0.35278 0.35278-0.35278 0.35278zm-0.26458-0.79375-0.39688-0.25648 0.63023-8e-3 0.32704 0.52916-0.16352-8e-3z" fill="#a6a6a6"/>
  <path d="m70.075 201.7v-0.13229h0.26458v0.26458h-0.26458zm2.1167 0v-0.13229h0.26458v0.26458h-0.26458zm4.7625 0v-0.13229h0.26458v0.26458h-0.26458zm4.2333 0v-0.13229h0.26458v0.26458h-0.26458zm5.2917 0v-0.13229h0.26458v0.26458h-0.26458zm0.52917 0v-0.13229h0.26458v0.26458h-0.26458zm16.933 0v-0.13229h0.26458v0.26458h-0.26458zm4.0569-0.0441 0.17639-0.17638 0.17639 0.17638 0.17639 0.17639h-0.70556zm5.7326 0.0441v-0.13229h0.26458v0.26458h-0.26458zm0.52917 0v-0.13229h0.26458v0.26458h-0.26458zm-32.279-0.26458v-0.13229h0.26458v0.26458h-0.26458zm21.167 0v-0.13229h0.26458v0.26458h-0.26458zm-27.252-0.26458v-0.1323h0.26458v0.26459h-0.26458zm1.9403-0.0441 0.17639-0.17639 0.35278 0.35278h-0.70556zm2.9104 0 0.17639-0.17639 0.35278 0.35278h-0.70556zm12.167-1.4111v-1.7198l0.10671 0.85989 0.10671 0.8599-0.10671 0.85989-0.10671 0.8599zm11.381 1.4111 0.17639-0.17639 0.35278 0.35278h-0.70555zm3.3514 0.0441v-0.1323h0.26459v0.26459h-0.26459zm13.055-1.8521 2e-3 -2.1167 0.10162 1.1315 0.10163 1.1315-0.10337 0.98519-0.10337 0.9852 2e-3 -2.1167zm-50.784 1.4143-0.18879-0.30546 0.30546 0.18878 0.30546 0.18879v0.23335h-0.23335zm38.522 0.17317v-0.13229h0.26459v0.26458h-0.26459zm1.0583 0v-0.13229h0.26458v0.26458h-0.26458zm-27.781-0.26458v-0.13229h0.26458v0.26458h-0.26458zm-12.863-3.3073v-3.3073l0.09394 1.6536 0.09394 1.6536-0.09394 1.6536-0.09394 1.6536zm34.294 3.0427v-0.1323h0.26458v0.26459h-0.26458zm6.6146 0v-0.1323h0.26458v0.26459h-0.26458zm-40.217-0.26459v-0.13229h0.26458v0.26458h-0.26458zm12.788-0.0441 0.17639-0.17638 0.17639 0.17638 0.17639 0.17639h-0.70556zm-6.1527-0.7717 0.02089-0.50711 0.13896 0.34726 0.13896 0.34727-0.3197 0.3197zm-0.02089-1.0363v-0.13229h0.26458v0.26458h-0.26458zm15.875-0.52917v-0.13229h0.26458v0.26458h-0.26458zm27.781-0.13229v-0.35278l0.17639 0.17639 0.17638 0.17639-0.17638 0.17639-0.17639 0.17639zm-22.225-0.13229v-0.13229h0.26458v0.26458h-0.26458zm0.79375 0v-0.13229h0.26458v0.26458h-0.26458zm4.7625 0v-0.13229h0.26458v0.26458h-0.26458zm5.8208 0v-0.13229h0.26458v0.26458h-0.26458zm5.5562 0v-0.13229h0.26458v0.26458h-0.26458zm-37.968-0.39688 0.16352-0.26458h0.26458l-0.16352 0.26458-0.16352 0.26459h-0.26458zm5.1594 0.1323v-0.1323h0.26458v0.26459h-0.26458zm0.79375 0v-0.1323h0.26458v0.26459h-0.26458zm19.844 0v-0.1323h0.26458v0.26459h-0.26458zm11.377 0v-0.1323h0.26458v0.26459h-0.26458zm-21.167-0.26459v-0.13229h0.26458v0.26458h-0.26458zm-15.346-0.26458v-0.13229h0.26458v0.26458h-0.26458zm3.4396 0v-0.13229h0.26458v0.26458h-0.26458zm6.2177-0.13229 0.16352-0.26459h0.26458l-0.16352 0.26459-0.16352 0.26458h-0.26458zm1.4552 0.13229v-0.13229h0.26458v0.26458h-0.26458zm2.6458 0v-0.13229h0.26458v0.26458h-0.26458zm3.175 0v-0.13229h0.26458v0.26458h-0.26458zm2.3812 0v-0.13229h0.26458v0.26458h-0.26458zm7.6729 0v-0.13229h0.26458v0.26458h-0.26458zm3.7042 0v-0.13229h0.26458v0.26458h-0.26458zm6.2177-0.13229 0.16352-0.26459h0.26458l-0.16352 0.26459-0.16352 0.26458h-0.26459zm1.4552 0.13229v-0.13229h0.26459v0.26458h-0.26459zm3.175 0v-0.13229h0.26459v0.26458h-0.26459zm-42.598-0.26458v-0.1323h0.26458v0.26459h-0.26458zm26.988 0v-0.1323h0.26458v0.26459h-0.26458zm5.8208 0v-0.1323h0.26458v0.26459h-0.26458zm-32.279-0.26459v-0.13229h0.26458v0.26458h-0.26458zm4.4979 0v-0.13229h0.26458v0.26458h-0.26458zm12.435 0v-0.13229h0.26458v0.26458h-0.26458zm3.4396 0v-0.13229h0.26458v0.26458h-0.26458zm11.113 0v-0.13229h0.26458v0.26458h-0.26458zm6.6146 0v-0.13229h0.26459v0.26458h-0.26459zm-45.244-1.3229v-0.1323h0.26458v0.26459h-0.26458zm0-0.79375v-0.1323h0.26458v0.26459h-0.26458zm-0.79375-0.26459v-0.13229h0.26458v0.26458h-0.26458z" fill="#5a5a5a"/>
  <path d="m69.904 201.58-0.56824-0.23563-0.14578-0.23587-0.14578-0.23588-0.08556-7.0865 0.58755-0.1958v6.5575l0.66146 0.8679 2.1167 0.1592v0.52916l-1.8521 0.1114zm7.0505 0.0688-0.39688-0.14593-0.92604-0.80671v-3.5844l0.41538-0.41538 0.41538-0.41537 1.2875-0.32314 4.0246 0.20324 1.0009 1.2361v1.5289h-6.6719l0.17838 0.7276 0.17839 0.72761 0.768 0.78392 3.9046 0.1972 1.1134-1.1134h0.52917v0.82076l-1.8351 0.76674-3.5889-0.0418zm5.0271-3.8709v-0.61904l-1.3478-0.6141h-3.3135l-0.82734 0.66146-0.1413 0.59531-0.1413 0.59531h5.7713zm4.6671 3.875-0.1692-0.16919v-4.3713l1.3943-1.0967h3.8974l0.48665 0.48665 0.48665 0.48666 0.63355-0.51302 0.63355-0.51301 3.5787 0.20221 0.92774 0.92654v4.5648l-0.66146 0.22411v-4.512l-1.1761-0.82375h-2.4695l-1.2492 1.0108-0.09596 4.1364-0.28274 0.0942-0.28274 0.0943v-4.2774l-1.0583-1.0583h-2.7927l-1.1761 0.82375v4.1721l-0.45536 0.28143zm16.87-0.19423-0.8203-0.35709-0.17188-0.44794-0.17189-0.44794v-2.5593l0.3287-0.8566 1.4971-0.77418h3.6515l0.83882 0.29241 0.83882 0.29242 0.259 0.48394 0.25899 0.48394v2.3911l-0.30668 0.6731-0.30668 0.67309-1.9002 0.52784-3.175-0.018zm5.3418-0.80027 0.37333-0.51056v-2.7793l-1.1761-0.82375h-3.7333l-1.1761 0.82375v3.115l0.59531 0.42888 0.59531 0.42889 4.1481-0.1724zm5.0404 0.9945-0.1692-0.16919v-4.1692l1.2989-1.2989h4.4634l1.0988 0.92604 0.0962 4.7365-0.60718 0.20239v-4.512l-1.1761-0.82375h-3.2041l-1.1761 0.82375v4.1721l-0.45536 0.28143z" fill="#030303"/>
 </g>
</svg>
